<mxfile host="app.diagrams.net" modified="2022-11-18T17:20:51.273Z" agent="5.0 (Windows)" etag="XKdQRBACszPTZPUFKloR" version="20.5.3" type="github">
  <diagram id="Iaxq1ReQXZGYs8ULbn-N" name="Page-1">
    <mxGraphModel dx="1209" dy="759" grid="1" gridSize="10" guides="1" tooltips="1" connect="1" arrows="1" fold="1" page="1" pageScale="1" pageWidth="1600" pageHeight="900" background="#FCE7CD" math="0" shadow="0">
      <root>
        <mxCell id="0" />
        <mxCell id="1" parent="0" />
        <mxCell id="TQ8ea_oWqzXYTMxOqmNg-19" style="edgeStyle=orthogonalEdgeStyle;rounded=0;orthogonalLoop=1;jettySize=auto;html=1;exitX=0.5;exitY=1;exitDx=0;exitDy=0;entryX=0;entryY=0.5;entryDx=0;entryDy=0;labelBackgroundColor=#FCE7CD;strokeColor=#23445D;" parent="1" source="TQ8ea_oWqzXYTMxOqmNg-2" target="TQ8ea_oWqzXYTMxOqmNg-5" edge="1">
          <mxGeometry relative="1" as="geometry" />
        </mxCell>
        <mxCell id="TQ8ea_oWqzXYTMxOqmNg-2" value="&lt;div&gt;Client App&lt;/div&gt;" style="rounded=1;whiteSpace=wrap;html=1;fillColor=#182E3E;strokeColor=#FFFFFF;fontColor=#FFFFFF;" parent="1" vertex="1">
          <mxGeometry x="340" y="350" width="120" height="60" as="geometry" />
        </mxCell>
        <mxCell id="TQ8ea_oWqzXYTMxOqmNg-24" style="edgeStyle=orthogonalEdgeStyle;rounded=0;orthogonalLoop=1;jettySize=auto;html=1;exitX=0.5;exitY=1;exitDx=0;exitDy=0;entryX=1;entryY=0.25;entryDx=0;entryDy=0;labelBackgroundColor=#FCE7CD;strokeColor=#23445D;" parent="1" source="TQ8ea_oWqzXYTMxOqmNg-4" target="TQ8ea_oWqzXYTMxOqmNg-5" edge="1">
          <mxGeometry relative="1" as="geometry" />
        </mxCell>
        <mxCell id="TQ8ea_oWqzXYTMxOqmNg-4" value="Some Web API 1" style="rounded=1;whiteSpace=wrap;html=1;fillColor=#182E3E;strokeColor=#FFFFFF;fontColor=#FFFFFF;" parent="1" vertex="1">
          <mxGeometry x="1020" y="380" width="120" height="60" as="geometry" />
        </mxCell>
        <mxCell id="TQ8ea_oWqzXYTMxOqmNg-11" style="edgeStyle=orthogonalEdgeStyle;rounded=0;orthogonalLoop=1;jettySize=auto;html=1;exitX=0.25;exitY=0;exitDx=0;exitDy=0;entryX=0.25;entryY=1;entryDx=0;entryDy=0;labelBackgroundColor=#FCE7CD;strokeColor=#23445D;" parent="1" source="TQ8ea_oWqzXYTMxOqmNg-5" target="TQ8ea_oWqzXYTMxOqmNg-6" edge="1">
          <mxGeometry relative="1" as="geometry" />
        </mxCell>
        <mxCell id="TQ8ea_oWqzXYTMxOqmNg-22" style="edgeStyle=orthogonalEdgeStyle;rounded=0;orthogonalLoop=1;jettySize=auto;html=1;exitX=0;exitY=0.5;exitDx=0;exitDy=0;entryX=0.5;entryY=1;entryDx=0;entryDy=0;labelBackgroundColor=#FCE7CD;strokeColor=#23445D;" parent="1" source="TQ8ea_oWqzXYTMxOqmNg-5" target="TQ8ea_oWqzXYTMxOqmNg-2" edge="1">
          <mxGeometry relative="1" as="geometry" />
        </mxCell>
        <mxCell id="TQ8ea_oWqzXYTMxOqmNg-23" style="edgeStyle=orthogonalEdgeStyle;rounded=0;orthogonalLoop=1;jettySize=auto;html=1;exitX=1;exitY=0.25;exitDx=0;exitDy=0;entryX=0.5;entryY=1;entryDx=0;entryDy=0;labelBackgroundColor=#FCE7CD;strokeColor=#23445D;" parent="1" source="TQ8ea_oWqzXYTMxOqmNg-5" target="TQ8ea_oWqzXYTMxOqmNg-4" edge="1">
          <mxGeometry relative="1" as="geometry" />
        </mxCell>
        <mxCell id="vgJoVPh-9pcPwyZ_yeXb-10" style="edgeStyle=orthogonalEdgeStyle;rounded=0;orthogonalLoop=1;jettySize=auto;html=1;exitX=1;exitY=0.5;exitDx=0;exitDy=0;entryX=0;entryY=0.5;entryDx=0;entryDy=0;" edge="1" parent="1" source="TQ8ea_oWqzXYTMxOqmNg-5" target="vgJoVPh-9pcPwyZ_yeXb-8">
          <mxGeometry relative="1" as="geometry" />
        </mxCell>
        <mxCell id="vgJoVPh-9pcPwyZ_yeXb-14" style="edgeStyle=orthogonalEdgeStyle;rounded=0;orthogonalLoop=1;jettySize=auto;html=1;exitX=1;exitY=0.75;exitDx=0;exitDy=0;entryX=0.5;entryY=0;entryDx=0;entryDy=0;" edge="1" parent="1" source="TQ8ea_oWqzXYTMxOqmNg-5" target="vgJoVPh-9pcPwyZ_yeXb-9">
          <mxGeometry relative="1" as="geometry" />
        </mxCell>
        <mxCell id="TQ8ea_oWqzXYTMxOqmNg-5" value="&lt;div&gt;Central &lt;br&gt;&lt;/div&gt;&lt;div&gt;Auth Server&lt;/div&gt;" style="rounded=1;whiteSpace=wrap;html=1;fillColor=#182E3E;strokeColor=#FFFFFF;fontColor=#FFFFFF;" parent="1" vertex="1">
          <mxGeometry x="720" y="500" width="120" height="60" as="geometry" />
        </mxCell>
        <mxCell id="TQ8ea_oWqzXYTMxOqmNg-12" style="edgeStyle=orthogonalEdgeStyle;rounded=0;orthogonalLoop=1;jettySize=auto;html=1;exitX=0.75;exitY=1;exitDx=0;exitDy=0;entryX=0.75;entryY=0;entryDx=0;entryDy=0;labelBackgroundColor=#FCE7CD;strokeColor=#23445D;" parent="1" source="TQ8ea_oWqzXYTMxOqmNg-6" target="TQ8ea_oWqzXYTMxOqmNg-5" edge="1">
          <mxGeometry relative="1" as="geometry" />
        </mxCell>
        <mxCell id="TQ8ea_oWqzXYTMxOqmNg-6" value="Auth Management Client" style="rounded=1;whiteSpace=wrap;html=1;fillColor=#182E3E;strokeColor=#FFFFFF;fontColor=#FFFFFF;" parent="1" vertex="1">
          <mxGeometry x="720" y="300" width="120" height="60" as="geometry" />
        </mxCell>
        <mxCell id="TQ8ea_oWqzXYTMxOqmNg-10" value="" style="group;fontColor=#FFFFFF;" parent="1" vertex="1" connectable="0">
          <mxGeometry x="520" y="110" width="100" height="100" as="geometry" />
        </mxCell>
        <mxCell id="TQ8ea_oWqzXYTMxOqmNg-8" value="" style="ellipse;whiteSpace=wrap;html=1;aspect=fixed;fillColor=#182E3E;strokeColor=#FFFFFF;fontColor=#FFFFFF;" parent="TQ8ea_oWqzXYTMxOqmNg-10" vertex="1">
          <mxGeometry width="100" height="100" as="geometry" />
        </mxCell>
        <mxCell id="TQ8ea_oWqzXYTMxOqmNg-7" value="&lt;p style=&quot;line-height: 130%;&quot;&gt;&lt;/p&gt;&lt;div style=&quot;font-size: 16px;&quot;&gt;&lt;font color=&quot;#182E3E&quot;&gt;Client Developer&lt;/font&gt;&lt;/div&gt;&lt;p&gt;&lt;/p&gt;" style="shape=umlActor;verticalLabelPosition=top;verticalAlign=bottom;html=1;outlineConnect=0;labelPosition=center;align=center;fontSize=16;spacingTop=0;fillColor=#182E3E;strokeColor=#FFFFFF;fontColor=#FFFFFF;" parent="TQ8ea_oWqzXYTMxOqmNg-10" vertex="1">
          <mxGeometry x="35" y="17" width="30" height="60" as="geometry" />
        </mxCell>
        <mxCell id="TQ8ea_oWqzXYTMxOqmNg-25" style="edgeStyle=orthogonalEdgeStyle;rounded=0;orthogonalLoop=1;jettySize=auto;html=1;exitX=1;exitY=0.5;exitDx=0;exitDy=0;entryX=0.5;entryY=0;entryDx=0;entryDy=0;labelBackgroundColor=#FCE7CD;strokeColor=#23445D;" parent="1" source="TQ8ea_oWqzXYTMxOqmNg-8" target="TQ8ea_oWqzXYTMxOqmNg-6" edge="1">
          <mxGeometry relative="1" as="geometry" />
        </mxCell>
        <mxCell id="TQ8ea_oWqzXYTMxOqmNg-26" style="edgeStyle=orthogonalEdgeStyle;rounded=0;orthogonalLoop=1;jettySize=auto;html=1;entryX=0.5;entryY=0;entryDx=0;entryDy=0;labelBackgroundColor=#FCE7CD;strokeColor=#23445D;" parent="1" source="TQ8ea_oWqzXYTMxOqmNg-8" target="TQ8ea_oWqzXYTMxOqmNg-2" edge="1">
          <mxGeometry relative="1" as="geometry" />
        </mxCell>
        <mxCell id="vgJoVPh-9pcPwyZ_yeXb-1" value="&lt;div&gt;Registers their client app&lt;/div&gt;" style="text;html=1;strokeColor=none;fillColor=none;align=center;verticalAlign=middle;whiteSpace=wrap;rounded=0;" vertex="1" parent="1">
          <mxGeometry x="730" y="130" width="80" height="30" as="geometry" />
        </mxCell>
        <mxCell id="vgJoVPh-9pcPwyZ_yeXb-2" value="Develops" style="text;html=1;strokeColor=none;fillColor=none;align=center;verticalAlign=middle;whiteSpace=wrap;rounded=0;" vertex="1" parent="1">
          <mxGeometry x="370" y="130" width="60" height="30" as="geometry" />
        </mxCell>
        <mxCell id="vgJoVPh-9pcPwyZ_yeXb-5" value="&lt;div align=&quot;left&quot;&gt;- Web API devs can see who&#39;s accessing their service&lt;/div&gt;&lt;div align=&quot;left&quot;&gt;- Client devs can check their api call logs&lt;br&gt;&lt;/div&gt;" style="text;html=1;strokeColor=none;fillColor=none;align=left;verticalAlign=middle;whiteSpace=wrap;rounded=0;" vertex="1" parent="1">
          <mxGeometry x="820" y="390" width="160" height="100" as="geometry" />
        </mxCell>
        <mxCell id="vgJoVPh-9pcPwyZ_yeXb-7" value="Bi-directional communication with auth server to fetch resources from some web API once the request is authorized" style="text;html=1;strokeColor=none;fillColor=none;align=center;verticalAlign=middle;whiteSpace=wrap;rounded=0;" vertex="1" parent="1">
          <mxGeometry x="420" y="530" width="220" height="60" as="geometry" />
        </mxCell>
        <mxCell id="vgJoVPh-9pcPwyZ_yeXb-13" style="edgeStyle=orthogonalEdgeStyle;rounded=0;orthogonalLoop=1;jettySize=auto;html=1;exitX=0;exitY=0.5;exitDx=0;exitDy=0;entryX=1;entryY=0.5;entryDx=0;entryDy=0;" edge="1" parent="1" source="vgJoVPh-9pcPwyZ_yeXb-8" target="TQ8ea_oWqzXYTMxOqmNg-5">
          <mxGeometry relative="1" as="geometry" />
        </mxCell>
        <mxCell id="vgJoVPh-9pcPwyZ_yeXb-8" value="Some Web API 2" style="rounded=1;whiteSpace=wrap;html=1;fillColor=#182E3E;strokeColor=#FFFFFF;fontColor=#FFFFFF;" vertex="1" parent="1">
          <mxGeometry x="1160" y="500" width="120" height="60" as="geometry" />
        </mxCell>
        <mxCell id="vgJoVPh-9pcPwyZ_yeXb-15" style="edgeStyle=orthogonalEdgeStyle;rounded=0;orthogonalLoop=1;jettySize=auto;html=1;exitX=0.5;exitY=0;exitDx=0;exitDy=0;entryX=1;entryY=0.75;entryDx=0;entryDy=0;" edge="1" parent="1" source="vgJoVPh-9pcPwyZ_yeXb-9" target="TQ8ea_oWqzXYTMxOqmNg-5">
          <mxGeometry relative="1" as="geometry" />
        </mxCell>
        <mxCell id="vgJoVPh-9pcPwyZ_yeXb-9" value="Some Web API 3" style="rounded=1;whiteSpace=wrap;html=1;fillColor=#182E3E;strokeColor=#FFFFFF;fontColor=#FFFFFF;" vertex="1" parent="1">
          <mxGeometry x="1020" y="600" width="120" height="60" as="geometry" />
        </mxCell>
      </root>
    </mxGraphModel>
  </diagram>
</mxfile>
